<mxfile host="app.diagrams.net" modified="2024-03-09T22:58:38.748Z" agent="Mozilla/5.0 (Windows NT 10.0; Win64; x64; rv:123.0) Gecko/20100101 Firefox/123.0" etag="6-YKLufH4uoXpiItkzei" version="24.0.4" type="device">
  <diagram name="Page-1" id="5LwPNRNfNNl3-3u6a_eh">
    <mxGraphModel dx="1756" dy="1827" grid="0" gridSize="10" guides="1" tooltips="1" connect="1" arrows="1" fold="1" page="0" pageScale="1" pageWidth="827" pageHeight="1169" math="0" shadow="0">
      <root>
        <mxCell id="0" />
        <mxCell id="1" parent="0" />
        <mxCell id="8JPHpoGy0JxroXhBt5FB-5" value="DjangoUser" style="swimlane;fontStyle=0;childLayout=stackLayout;horizontal=1;startSize=26;fillColor=none;horizontalStack=0;resizeParent=1;resizeParentMax=0;resizeLast=0;collapsible=1;marginBottom=0;whiteSpace=wrap;html=1;" vertex="1" parent="1">
          <mxGeometry x="40" y="-1120" width="140" height="156" as="geometry" />
        </mxCell>
        <mxCell id="8JPHpoGy0JxroXhBt5FB-6" value="+ ID: INT" style="text;strokeColor=none;fillColor=none;align=left;verticalAlign=top;spacingLeft=4;spacingRight=4;overflow=hidden;rotatable=0;points=[[0,0.5],[1,0.5]];portConstraint=eastwest;whiteSpace=wrap;html=1;" vertex="1" parent="8JPHpoGy0JxroXhBt5FB-5">
          <mxGeometry y="26" width="140" height="26" as="geometry" />
        </mxCell>
        <mxCell id="8JPHpoGy0JxroXhBt5FB-7" value="&amp;nbsp;USERNAME: CHAR" style="text;strokeColor=none;fillColor=none;align=left;verticalAlign=top;spacingLeft=4;spacingRight=4;overflow=hidden;rotatable=0;points=[[0,0.5],[1,0.5]];portConstraint=eastwest;whiteSpace=wrap;html=1;" vertex="1" parent="8JPHpoGy0JxroXhBt5FB-5">
          <mxGeometry y="52" width="140" height="26" as="geometry" />
        </mxCell>
        <mxCell id="8JPHpoGy0JxroXhBt5FB-8" value="&amp;nbsp;EMAIL: EMAIL" style="text;strokeColor=none;fillColor=none;align=left;verticalAlign=top;spacingLeft=4;spacingRight=4;overflow=hidden;rotatable=0;points=[[0,0.5],[1,0.5]];portConstraint=eastwest;whiteSpace=wrap;html=1;" vertex="1" parent="8JPHpoGy0JxroXhBt5FB-5">
          <mxGeometry y="78" width="140" height="26" as="geometry" />
        </mxCell>
        <mxCell id="8JPHpoGy0JxroXhBt5FB-10" value="&amp;nbsp;PASSWORD: CHAR" style="text;strokeColor=none;fillColor=none;align=left;verticalAlign=top;spacingLeft=4;spacingRight=4;overflow=hidden;rotatable=0;points=[[0,0.5],[1,0.5]];portConstraint=eastwest;whiteSpace=wrap;html=1;" vertex="1" parent="8JPHpoGy0JxroXhBt5FB-5">
          <mxGeometry y="104" width="140" height="26" as="geometry" />
        </mxCell>
        <mxCell id="8JPHpoGy0JxroXhBt5FB-11" value="&amp;nbsp;GROUP: LIST" style="text;strokeColor=none;fillColor=none;align=left;verticalAlign=top;spacingLeft=4;spacingRight=4;overflow=hidden;rotatable=0;points=[[0,0.5],[1,0.5]];portConstraint=eastwest;whiteSpace=wrap;html=1;" vertex="1" parent="8JPHpoGy0JxroXhBt5FB-5">
          <mxGeometry y="130" width="140" height="26" as="geometry" />
        </mxCell>
        <mxCell id="8JPHpoGy0JxroXhBt5FB-12" value="Employee" style="swimlane;fontStyle=0;childLayout=stackLayout;horizontal=1;startSize=26;fillColor=none;horizontalStack=0;resizeParent=1;resizeParentMax=0;resizeLast=0;collapsible=1;marginBottom=0;whiteSpace=wrap;html=1;" vertex="1" parent="1">
          <mxGeometry x="280" y="-1120" width="160" height="236" as="geometry" />
        </mxCell>
        <mxCell id="8JPHpoGy0JxroXhBt5FB-13" value="+ ID: INT" style="text;strokeColor=none;fillColor=none;align=left;verticalAlign=top;spacingLeft=4;spacingRight=4;overflow=hidden;rotatable=0;points=[[0,0.5],[1,0.5]];portConstraint=eastwest;whiteSpace=wrap;html=1;" vertex="1" parent="8JPHpoGy0JxroXhBt5FB-12">
          <mxGeometry y="26" width="160" height="26" as="geometry" />
        </mxCell>
        <mxCell id="8JPHpoGy0JxroXhBt5FB-14" value="&amp;nbsp;USER: FK" style="text;strokeColor=none;fillColor=none;align=left;verticalAlign=top;spacingLeft=4;spacingRight=4;overflow=hidden;rotatable=0;points=[[0,0.5],[1,0.5]];portConstraint=eastwest;whiteSpace=wrap;html=1;" vertex="1" parent="8JPHpoGy0JxroXhBt5FB-12">
          <mxGeometry y="52" width="160" height="28" as="geometry" />
        </mxCell>
        <mxCell id="8JPHpoGy0JxroXhBt5FB-15" value="+ FIRSTNAME: CHAR" style="text;strokeColor=none;fillColor=none;align=left;verticalAlign=top;spacingLeft=4;spacingRight=4;overflow=hidden;rotatable=0;points=[[0,0.5],[1,0.5]];portConstraint=eastwest;whiteSpace=wrap;html=1;" vertex="1" parent="8JPHpoGy0JxroXhBt5FB-12">
          <mxGeometry y="80" width="160" height="26" as="geometry" />
        </mxCell>
        <mxCell id="8JPHpoGy0JxroXhBt5FB-16" value="+ LASTNAME: CHAR" style="text;strokeColor=none;fillColor=none;align=left;verticalAlign=top;spacingLeft=4;spacingRight=4;overflow=hidden;rotatable=0;points=[[0,0.5],[1,0.5]];portConstraint=eastwest;whiteSpace=wrap;html=1;" vertex="1" parent="8JPHpoGy0JxroXhBt5FB-12">
          <mxGeometry y="106" width="160" height="26" as="geometry" />
        </mxCell>
        <mxCell id="8JPHpoGy0JxroXhBt5FB-17" value="+ PHONENUMBER: CHAR" style="text;strokeColor=none;fillColor=none;align=left;verticalAlign=top;spacingLeft=4;spacingRight=4;overflow=hidden;rotatable=0;points=[[0,0.5],[1,0.5]];portConstraint=eastwest;whiteSpace=wrap;html=1;" vertex="1" parent="8JPHpoGy0JxroXhBt5FB-12">
          <mxGeometry y="132" width="160" height="26" as="geometry" />
        </mxCell>
        <mxCell id="8JPHpoGy0JxroXhBt5FB-19" value="+ POSITION: FK" style="text;strokeColor=none;fillColor=none;align=left;verticalAlign=top;spacingLeft=4;spacingRight=4;overflow=hidden;rotatable=0;points=[[0,0.5],[1,0.5]];portConstraint=eastwest;whiteSpace=wrap;html=1;" vertex="1" parent="8JPHpoGy0JxroXhBt5FB-12">
          <mxGeometry y="158" width="160" height="26" as="geometry" />
        </mxCell>
        <mxCell id="8JPHpoGy0JxroXhBt5FB-20" value="+ SpService: FK" style="text;strokeColor=none;fillColor=none;align=left;verticalAlign=top;spacingLeft=4;spacingRight=4;overflow=hidden;rotatable=0;points=[[0,0.5],[1,0.5]];portConstraint=eastwest;whiteSpace=wrap;html=1;" vertex="1" parent="8JPHpoGy0JxroXhBt5FB-12">
          <mxGeometry y="184" width="160" height="26" as="geometry" />
        </mxCell>
        <mxCell id="8JPHpoGy0JxroXhBt5FB-39" style="edgeStyle=orthogonalEdgeStyle;rounded=0;orthogonalLoop=1;jettySize=auto;html=1;" edge="1" parent="8JPHpoGy0JxroXhBt5FB-12" source="8JPHpoGy0JxroXhBt5FB-21">
          <mxGeometry relative="1" as="geometry">
            <mxPoint x="190" y="222.9999999999999" as="targetPoint" />
          </mxGeometry>
        </mxCell>
        <mxCell id="8JPHpoGy0JxroXhBt5FB-21" value="+ PERMISSIONS: FK" style="text;strokeColor=#d79b00;fillColor=#ffe6cc;align=left;verticalAlign=top;spacingLeft=4;spacingRight=4;overflow=hidden;rotatable=0;points=[[0,0.5],[1,0.5]];portConstraint=eastwest;whiteSpace=wrap;html=1;" vertex="1" parent="8JPHpoGy0JxroXhBt5FB-12">
          <mxGeometry y="210" width="160" height="26" as="geometry" />
        </mxCell>
        <mxCell id="8JPHpoGy0JxroXhBt5FB-22" style="edgeStyle=orthogonalEdgeStyle;rounded=0;orthogonalLoop=1;jettySize=auto;html=1;exitX=0;exitY=0.5;exitDx=0;exitDy=0;entryX=1;entryY=0.5;entryDx=0;entryDy=0;" edge="1" parent="1" source="8JPHpoGy0JxroXhBt5FB-14" target="8JPHpoGy0JxroXhBt5FB-6">
          <mxGeometry relative="1" as="geometry" />
        </mxCell>
        <mxCell id="8JPHpoGy0JxroXhBt5FB-23" value="Position" style="swimlane;fontStyle=0;childLayout=stackLayout;horizontal=1;startSize=26;fillColor=none;horizontalStack=0;resizeParent=1;resizeParentMax=0;resizeLast=0;collapsible=1;marginBottom=0;whiteSpace=wrap;html=1;" vertex="1" parent="1">
          <mxGeometry x="500" y="-1150" width="140" height="78" as="geometry" />
        </mxCell>
        <mxCell id="8JPHpoGy0JxroXhBt5FB-24" value="+ ID: INT" style="text;strokeColor=none;fillColor=none;align=left;verticalAlign=top;spacingLeft=4;spacingRight=4;overflow=hidden;rotatable=0;points=[[0,0.5],[1,0.5]];portConstraint=eastwest;whiteSpace=wrap;html=1;" vertex="1" parent="8JPHpoGy0JxroXhBt5FB-23">
          <mxGeometry y="26" width="140" height="26" as="geometry" />
        </mxCell>
        <mxCell id="8JPHpoGy0JxroXhBt5FB-25" value="&amp;nbsp; NAME: CHAR" style="text;strokeColor=none;fillColor=none;align=left;verticalAlign=top;spacingLeft=4;spacingRight=4;overflow=hidden;rotatable=0;points=[[0,0.5],[1,0.5]];portConstraint=eastwest;whiteSpace=wrap;html=1;" vertex="1" parent="8JPHpoGy0JxroXhBt5FB-23">
          <mxGeometry y="52" width="140" height="26" as="geometry" />
        </mxCell>
        <mxCell id="8JPHpoGy0JxroXhBt5FB-29" style="edgeStyle=orthogonalEdgeStyle;rounded=0;orthogonalLoop=1;jettySize=auto;html=1;exitX=1;exitY=0.5;exitDx=0;exitDy=0;entryX=0;entryY=0.5;entryDx=0;entryDy=0;" edge="1" parent="1" source="8JPHpoGy0JxroXhBt5FB-19" target="8JPHpoGy0JxroXhBt5FB-23">
          <mxGeometry relative="1" as="geometry">
            <Array as="points">
              <mxPoint x="460" y="-949" />
              <mxPoint x="460" y="-1111" />
            </Array>
          </mxGeometry>
        </mxCell>
        <mxCell id="8JPHpoGy0JxroXhBt5FB-30" value="Service" style="swimlane;fontStyle=0;childLayout=stackLayout;horizontal=1;startSize=26;fillColor=none;horizontalStack=0;resizeParent=1;resizeParentMax=0;resizeLast=0;collapsible=1;marginBottom=0;whiteSpace=wrap;html=1;" vertex="1" parent="1">
          <mxGeometry x="500" y="-1054" width="140" height="104" as="geometry" />
        </mxCell>
        <mxCell id="8JPHpoGy0JxroXhBt5FB-31" value="+ ID: INT" style="text;strokeColor=none;fillColor=none;align=left;verticalAlign=top;spacingLeft=4;spacingRight=4;overflow=hidden;rotatable=0;points=[[0,0.5],[1,0.5]];portConstraint=eastwest;whiteSpace=wrap;html=1;" vertex="1" parent="8JPHpoGy0JxroXhBt5FB-30">
          <mxGeometry y="26" width="140" height="26" as="geometry" />
        </mxCell>
        <mxCell id="8JPHpoGy0JxroXhBt5FB-32" value="&amp;nbsp; NAME: CHAR" style="text;strokeColor=none;fillColor=none;align=left;verticalAlign=top;spacingLeft=4;spacingRight=4;overflow=hidden;rotatable=0;points=[[0,0.5],[1,0.5]];portConstraint=eastwest;whiteSpace=wrap;html=1;" vertex="1" parent="8JPHpoGy0JxroXhBt5FB-30">
          <mxGeometry y="52" width="140" height="26" as="geometry" />
        </mxCell>
        <mxCell id="8JPHpoGy0JxroXhBt5FB-33" value="&amp;nbsp; COLIMNS: TEXT" style="text;strokeColor=none;fillColor=none;align=left;verticalAlign=top;spacingLeft=4;spacingRight=4;overflow=hidden;rotatable=0;points=[[0,0.5],[1,0.5]];portConstraint=eastwest;whiteSpace=wrap;html=1;" vertex="1" parent="8JPHpoGy0JxroXhBt5FB-30">
          <mxGeometry y="78" width="140" height="26" as="geometry" />
        </mxCell>
        <mxCell id="8JPHpoGy0JxroXhBt5FB-34" style="edgeStyle=orthogonalEdgeStyle;rounded=0;orthogonalLoop=1;jettySize=auto;html=1;exitX=1;exitY=0.5;exitDx=0;exitDy=0;entryX=0;entryY=0.5;entryDx=0;entryDy=0;" edge="1" parent="1" source="8JPHpoGy0JxroXhBt5FB-20" target="8JPHpoGy0JxroXhBt5FB-31">
          <mxGeometry relative="1" as="geometry" />
        </mxCell>
        <mxCell id="8JPHpoGy0JxroXhBt5FB-35" value="Permission" style="swimlane;fontStyle=0;childLayout=stackLayout;horizontal=1;startSize=26;fillColor=none;horizontalStack=0;resizeParent=1;resizeParentMax=0;resizeLast=0;collapsible=1;marginBottom=0;whiteSpace=wrap;html=1;" vertex="1" parent="1">
          <mxGeometry x="500" y="-936" width="140" height="78" as="geometry" />
        </mxCell>
        <mxCell id="8JPHpoGy0JxroXhBt5FB-36" value="+ ID: INT" style="text;strokeColor=none;fillColor=none;align=left;verticalAlign=top;spacingLeft=4;spacingRight=4;overflow=hidden;rotatable=0;points=[[0,0.5],[1,0.5]];portConstraint=eastwest;whiteSpace=wrap;html=1;" vertex="1" parent="8JPHpoGy0JxroXhBt5FB-35">
          <mxGeometry y="26" width="140" height="26" as="geometry" />
        </mxCell>
        <mxCell id="8JPHpoGy0JxroXhBt5FB-37" value="&amp;nbsp; NAME: CHAR" style="text;strokeColor=none;fillColor=none;align=left;verticalAlign=top;spacingLeft=4;spacingRight=4;overflow=hidden;rotatable=0;points=[[0,0.5],[1,0.5]];portConstraint=eastwest;whiteSpace=wrap;html=1;" vertex="1" parent="8JPHpoGy0JxroXhBt5FB-35">
          <mxGeometry y="52" width="140" height="26" as="geometry" />
        </mxCell>
        <mxCell id="8JPHpoGy0JxroXhBt5FB-38" style="edgeStyle=orthogonalEdgeStyle;rounded=0;orthogonalLoop=1;jettySize=auto;html=1;exitX=1;exitY=0.5;exitDx=0;exitDy=0;entryX=0;entryY=0.5;entryDx=0;entryDy=0;" edge="1" parent="1" source="8JPHpoGy0JxroXhBt5FB-21" target="8JPHpoGy0JxroXhBt5FB-35">
          <mxGeometry relative="1" as="geometry">
            <Array as="points">
              <mxPoint x="470" y="-897" />
              <mxPoint x="470" y="-897" />
            </Array>
          </mxGeometry>
        </mxCell>
        <mxCell id="8JPHpoGy0JxroXhBt5FB-40" value="Customer" style="swimlane;fontStyle=0;childLayout=stackLayout;horizontal=1;startSize=26;fillColor=none;horizontalStack=0;resizeParent=1;resizeParentMax=0;resizeLast=0;collapsible=1;marginBottom=0;whiteSpace=wrap;html=1;" vertex="1" parent="1">
          <mxGeometry x="40" y="-680" width="160" height="260" as="geometry" />
        </mxCell>
        <mxCell id="8JPHpoGy0JxroXhBt5FB-41" value="+ ID: INT" style="text;strokeColor=none;fillColor=none;align=left;verticalAlign=top;spacingLeft=4;spacingRight=4;overflow=hidden;rotatable=0;points=[[0,0.5],[1,0.5]];portConstraint=eastwest;whiteSpace=wrap;html=1;" vertex="1" parent="8JPHpoGy0JxroXhBt5FB-40">
          <mxGeometry y="26" width="160" height="26" as="geometry" />
        </mxCell>
        <mxCell id="8JPHpoGy0JxroXhBt5FB-50" value="+ EMPLOYEE: FK" style="text;strokeColor=none;fillColor=none;align=left;verticalAlign=top;spacingLeft=4;spacingRight=4;overflow=hidden;rotatable=0;points=[[0,0.5],[1,0.5]];portConstraint=eastwest;whiteSpace=wrap;html=1;" vertex="1" parent="8JPHpoGy0JxroXhBt5FB-40">
          <mxGeometry y="52" width="160" height="26" as="geometry" />
        </mxCell>
        <mxCell id="8JPHpoGy0JxroXhBt5FB-42" value="+ FIRSTNAME: CHAR" style="text;strokeColor=none;fillColor=none;align=left;verticalAlign=top;spacingLeft=4;spacingRight=4;overflow=hidden;rotatable=0;points=[[0,0.5],[1,0.5]];portConstraint=eastwest;whiteSpace=wrap;html=1;" vertex="1" parent="8JPHpoGy0JxroXhBt5FB-40">
          <mxGeometry y="78" width="160" height="26" as="geometry" />
        </mxCell>
        <mxCell id="8JPHpoGy0JxroXhBt5FB-43" value="+ LASTNAME: CHAR" style="text;strokeColor=none;fillColor=none;align=left;verticalAlign=top;spacingLeft=4;spacingRight=4;overflow=hidden;rotatable=0;points=[[0,0.5],[1,0.5]];portConstraint=eastwest;whiteSpace=wrap;html=1;" vertex="1" parent="8JPHpoGy0JxroXhBt5FB-40">
          <mxGeometry y="104" width="160" height="26" as="geometry" />
        </mxCell>
        <mxCell id="8JPHpoGy0JxroXhBt5FB-44" value="+ GENDER: CHAR" style="text;strokeColor=none;fillColor=none;align=left;verticalAlign=top;spacingLeft=4;spacingRight=4;overflow=hidden;rotatable=0;points=[[0,0.5],[1,0.5]];portConstraint=eastwest;whiteSpace=wrap;html=1;" vertex="1" parent="8JPHpoGy0JxroXhBt5FB-40">
          <mxGeometry y="130" width="160" height="26" as="geometry" />
        </mxCell>
        <mxCell id="8JPHpoGy0JxroXhBt5FB-45" value="+ NATIONALITY: FK" style="text;strokeColor=none;fillColor=none;align=left;verticalAlign=top;spacingLeft=4;spacingRight=4;overflow=hidden;rotatable=0;points=[[0,0.5],[1,0.5]];portConstraint=eastwest;whiteSpace=wrap;html=1;" vertex="1" parent="8JPHpoGy0JxroXhBt5FB-40">
          <mxGeometry y="156" width="160" height="26" as="geometry" />
        </mxCell>
        <mxCell id="8JPHpoGy0JxroXhBt5FB-46" value="+ REGISTER: DATETIME" style="text;strokeColor=none;fillColor=none;align=left;verticalAlign=top;spacingLeft=4;spacingRight=4;overflow=hidden;rotatable=0;points=[[0,0.5],[1,0.5]];portConstraint=eastwest;whiteSpace=wrap;html=1;" vertex="1" parent="8JPHpoGy0JxroXhBt5FB-40">
          <mxGeometry y="182" width="160" height="26" as="geometry" />
        </mxCell>
        <mxCell id="8JPHpoGy0JxroXhBt5FB-47" value="+ LANGUAGE: FK" style="text;strokeColor=none;fillColor=none;align=left;verticalAlign=top;spacingLeft=4;spacingRight=4;overflow=hidden;rotatable=0;points=[[0,0.5],[1,0.5]];portConstraint=eastwest;whiteSpace=wrap;html=1;" vertex="1" parent="8JPHpoGy0JxroXhBt5FB-40">
          <mxGeometry y="208" width="160" height="26" as="geometry" />
        </mxCell>
        <mxCell id="8JPHpoGy0JxroXhBt5FB-48" value="+ TRN: CHAR" style="text;strokeColor=none;fillColor=none;align=left;verticalAlign=top;spacingLeft=4;spacingRight=4;overflow=hidden;rotatable=0;points=[[0,0.5],[1,0.5]];portConstraint=eastwest;whiteSpace=wrap;html=1;" vertex="1" parent="8JPHpoGy0JxroXhBt5FB-40">
          <mxGeometry y="234" width="160" height="26" as="geometry" />
        </mxCell>
        <mxCell id="8JPHpoGy0JxroXhBt5FB-52" value="Nationality" style="swimlane;fontStyle=0;childLayout=stackLayout;horizontal=1;startSize=26;fillColor=none;horizontalStack=0;resizeParent=1;resizeParentMax=0;resizeLast=0;collapsible=1;marginBottom=0;whiteSpace=wrap;html=1;" vertex="1" parent="1">
          <mxGeometry x="360" y="-589" width="140" height="78" as="geometry" />
        </mxCell>
        <mxCell id="8JPHpoGy0JxroXhBt5FB-53" value="+ ID: INT" style="text;strokeColor=none;fillColor=none;align=left;verticalAlign=top;spacingLeft=4;spacingRight=4;overflow=hidden;rotatable=0;points=[[0,0.5],[1,0.5]];portConstraint=eastwest;whiteSpace=wrap;html=1;" vertex="1" parent="8JPHpoGy0JxroXhBt5FB-52">
          <mxGeometry y="26" width="140" height="26" as="geometry" />
        </mxCell>
        <mxCell id="8JPHpoGy0JxroXhBt5FB-54" value="&amp;nbsp; NAME: CHAR" style="text;strokeColor=none;fillColor=none;align=left;verticalAlign=top;spacingLeft=4;spacingRight=4;overflow=hidden;rotatable=0;points=[[0,0.5],[1,0.5]];portConstraint=eastwest;whiteSpace=wrap;html=1;" vertex="1" parent="8JPHpoGy0JxroXhBt5FB-52">
          <mxGeometry y="52" width="140" height="26" as="geometry" />
        </mxCell>
        <mxCell id="8JPHpoGy0JxroXhBt5FB-55" value="Language" style="swimlane;fontStyle=0;childLayout=stackLayout;horizontal=1;startSize=26;fillColor=none;horizontalStack=0;resizeParent=1;resizeParentMax=0;resizeLast=0;collapsible=1;marginBottom=0;whiteSpace=wrap;html=1;" vertex="1" parent="1">
          <mxGeometry x="360" y="-498" width="140" height="78" as="geometry" />
        </mxCell>
        <mxCell id="8JPHpoGy0JxroXhBt5FB-56" value="+ ID: INT" style="text;strokeColor=none;fillColor=none;align=left;verticalAlign=top;spacingLeft=4;spacingRight=4;overflow=hidden;rotatable=0;points=[[0,0.5],[1,0.5]];portConstraint=eastwest;whiteSpace=wrap;html=1;" vertex="1" parent="8JPHpoGy0JxroXhBt5FB-55">
          <mxGeometry y="26" width="140" height="26" as="geometry" />
        </mxCell>
        <mxCell id="8JPHpoGy0JxroXhBt5FB-57" value="&amp;nbsp; NAME: CHAR" style="text;strokeColor=none;fillColor=none;align=left;verticalAlign=top;spacingLeft=4;spacingRight=4;overflow=hidden;rotatable=0;points=[[0,0.5],[1,0.5]];portConstraint=eastwest;whiteSpace=wrap;html=1;" vertex="1" parent="8JPHpoGy0JxroXhBt5FB-55">
          <mxGeometry y="52" width="140" height="26" as="geometry" />
        </mxCell>
        <mxCell id="8JPHpoGy0JxroXhBt5FB-58" style="edgeStyle=orthogonalEdgeStyle;rounded=0;orthogonalLoop=1;jettySize=auto;html=1;exitX=1;exitY=0.5;exitDx=0;exitDy=0;entryX=0;entryY=0.5;entryDx=0;entryDy=0;" edge="1" parent="1" source="8JPHpoGy0JxroXhBt5FB-45" target="8JPHpoGy0JxroXhBt5FB-53">
          <mxGeometry relative="1" as="geometry" />
        </mxCell>
        <mxCell id="8JPHpoGy0JxroXhBt5FB-59" style="edgeStyle=orthogonalEdgeStyle;rounded=0;orthogonalLoop=1;jettySize=auto;html=1;exitX=1;exitY=0.5;exitDx=0;exitDy=0;entryX=0;entryY=0.5;entryDx=0;entryDy=0;" edge="1" parent="1" source="8JPHpoGy0JxroXhBt5FB-47" target="8JPHpoGy0JxroXhBt5FB-56">
          <mxGeometry relative="1" as="geometry" />
        </mxCell>
        <mxCell id="8JPHpoGy0JxroXhBt5FB-63" value="PHONENUMBER" style="swimlane;fontStyle=0;childLayout=stackLayout;horizontal=1;startSize=26;fillColor=none;horizontalStack=0;resizeParent=1;resizeParentMax=0;resizeLast=0;collapsible=1;marginBottom=0;whiteSpace=wrap;html=1;" vertex="1" parent="1">
          <mxGeometry x="660" y="-760" width="140" height="104" as="geometry" />
        </mxCell>
        <mxCell id="8JPHpoGy0JxroXhBt5FB-64" value="+ ID: INT" style="text;strokeColor=none;fillColor=none;align=left;verticalAlign=top;spacingLeft=4;spacingRight=4;overflow=hidden;rotatable=0;points=[[0,0.5],[1,0.5]];portConstraint=eastwest;whiteSpace=wrap;html=1;" vertex="1" parent="8JPHpoGy0JxroXhBt5FB-63">
          <mxGeometry y="26" width="140" height="26" as="geometry" />
        </mxCell>
        <mxCell id="8JPHpoGy0JxroXhBt5FB-65" value="&amp;nbsp; CUSTOMER: FK" style="text;strokeColor=none;fillColor=none;align=left;verticalAlign=top;spacingLeft=4;spacingRight=4;overflow=hidden;rotatable=0;points=[[0,0.5],[1,0.5]];portConstraint=eastwest;whiteSpace=wrap;html=1;" vertex="1" parent="8JPHpoGy0JxroXhBt5FB-63">
          <mxGeometry y="52" width="140" height="26" as="geometry" />
        </mxCell>
        <mxCell id="8JPHpoGy0JxroXhBt5FB-76" value="&amp;nbsp; NUMBER: CHAR" style="text;strokeColor=none;fillColor=none;align=left;verticalAlign=top;spacingLeft=4;spacingRight=4;overflow=hidden;rotatable=0;points=[[0,0.5],[1,0.5]];portConstraint=eastwest;whiteSpace=wrap;html=1;" vertex="1" parent="8JPHpoGy0JxroXhBt5FB-63">
          <mxGeometry y="78" width="140" height="26" as="geometry" />
        </mxCell>
        <mxCell id="8JPHpoGy0JxroXhBt5FB-66" value="WhatsAPP" style="swimlane;fontStyle=0;childLayout=stackLayout;horizontal=1;startSize=26;fillColor=none;horizontalStack=0;resizeParent=1;resizeParentMax=0;resizeLast=0;collapsible=1;marginBottom=0;whiteSpace=wrap;html=1;" vertex="1" parent="1">
          <mxGeometry x="660" y="-636" width="140" height="104" as="geometry" />
        </mxCell>
        <mxCell id="8JPHpoGy0JxroXhBt5FB-67" value="+ ID: INT" style="text;strokeColor=none;fillColor=none;align=left;verticalAlign=top;spacingLeft=4;spacingRight=4;overflow=hidden;rotatable=0;points=[[0,0.5],[1,0.5]];portConstraint=eastwest;whiteSpace=wrap;html=1;" vertex="1" parent="8JPHpoGy0JxroXhBt5FB-66">
          <mxGeometry y="26" width="140" height="26" as="geometry" />
        </mxCell>
        <mxCell id="8JPHpoGy0JxroXhBt5FB-68" value="&amp;nbsp; CUSTOMER: FK" style="text;strokeColor=none;fillColor=none;align=left;verticalAlign=top;spacingLeft=4;spacingRight=4;overflow=hidden;rotatable=0;points=[[0,0.5],[1,0.5]];portConstraint=eastwest;whiteSpace=wrap;html=1;" vertex="1" parent="8JPHpoGy0JxroXhBt5FB-66">
          <mxGeometry y="52" width="140" height="26" as="geometry" />
        </mxCell>
        <mxCell id="8JPHpoGy0JxroXhBt5FB-77" value="&amp;nbsp; WHATSAPP: CHAR" style="text;strokeColor=none;fillColor=none;align=left;verticalAlign=top;spacingLeft=4;spacingRight=4;overflow=hidden;rotatable=0;points=[[0,0.5],[1,0.5]];portConstraint=eastwest;whiteSpace=wrap;html=1;" vertex="1" parent="8JPHpoGy0JxroXhBt5FB-66">
          <mxGeometry y="78" width="140" height="26" as="geometry" />
        </mxCell>
        <mxCell id="8JPHpoGy0JxroXhBt5FB-69" value="LANDLINE" style="swimlane;fontStyle=0;childLayout=stackLayout;horizontal=1;startSize=26;fillColor=none;horizontalStack=0;resizeParent=1;resizeParentMax=0;resizeLast=0;collapsible=1;marginBottom=0;whiteSpace=wrap;html=1;" vertex="1" parent="1">
          <mxGeometry x="660" y="-511" width="140" height="104" as="geometry" />
        </mxCell>
        <mxCell id="8JPHpoGy0JxroXhBt5FB-70" value="+ ID: INT" style="text;strokeColor=none;fillColor=none;align=left;verticalAlign=top;spacingLeft=4;spacingRight=4;overflow=hidden;rotatable=0;points=[[0,0.5],[1,0.5]];portConstraint=eastwest;whiteSpace=wrap;html=1;" vertex="1" parent="8JPHpoGy0JxroXhBt5FB-69">
          <mxGeometry y="26" width="140" height="26" as="geometry" />
        </mxCell>
        <mxCell id="8JPHpoGy0JxroXhBt5FB-71" value="&amp;nbsp; CUSTOMER: FK" style="text;strokeColor=none;fillColor=none;align=left;verticalAlign=top;spacingLeft=4;spacingRight=4;overflow=hidden;rotatable=0;points=[[0,0.5],[1,0.5]];portConstraint=eastwest;whiteSpace=wrap;html=1;" vertex="1" parent="8JPHpoGy0JxroXhBt5FB-69">
          <mxGeometry y="52" width="140" height="26" as="geometry" />
        </mxCell>
        <mxCell id="8JPHpoGy0JxroXhBt5FB-78" value="&amp;nbsp; LANDLINE: CHAR" style="text;strokeColor=none;fillColor=none;align=left;verticalAlign=top;spacingLeft=4;spacingRight=4;overflow=hidden;rotatable=0;points=[[0,0.5],[1,0.5]];portConstraint=eastwest;whiteSpace=wrap;html=1;" vertex="1" parent="8JPHpoGy0JxroXhBt5FB-69">
          <mxGeometry y="78" width="140" height="26" as="geometry" />
        </mxCell>
        <mxCell id="8JPHpoGy0JxroXhBt5FB-72" value="EMAIL" style="swimlane;fontStyle=0;childLayout=stackLayout;horizontal=1;startSize=26;fillColor=none;horizontalStack=0;resizeParent=1;resizeParentMax=0;resizeLast=0;collapsible=1;marginBottom=0;whiteSpace=wrap;html=1;" vertex="1" parent="1">
          <mxGeometry x="660" y="-390" width="140" height="104" as="geometry" />
        </mxCell>
        <mxCell id="8JPHpoGy0JxroXhBt5FB-73" value="+ ID: INT" style="text;strokeColor=none;fillColor=none;align=left;verticalAlign=top;spacingLeft=4;spacingRight=4;overflow=hidden;rotatable=0;points=[[0,0.5],[1,0.5]];portConstraint=eastwest;whiteSpace=wrap;html=1;" vertex="1" parent="8JPHpoGy0JxroXhBt5FB-72">
          <mxGeometry y="26" width="140" height="26" as="geometry" />
        </mxCell>
        <mxCell id="8JPHpoGy0JxroXhBt5FB-74" value="&amp;nbsp; CUSTOMER: FK" style="text;strokeColor=none;fillColor=none;align=left;verticalAlign=top;spacingLeft=4;spacingRight=4;overflow=hidden;rotatable=0;points=[[0,0.5],[1,0.5]];portConstraint=eastwest;whiteSpace=wrap;html=1;" vertex="1" parent="8JPHpoGy0JxroXhBt5FB-72">
          <mxGeometry y="52" width="140" height="26" as="geometry" />
        </mxCell>
        <mxCell id="8JPHpoGy0JxroXhBt5FB-79" value="&amp;nbsp; EMAIL: CHAR" style="text;strokeColor=none;fillColor=none;align=left;verticalAlign=top;spacingLeft=4;spacingRight=4;overflow=hidden;rotatable=0;points=[[0,0.5],[1,0.5]];portConstraint=eastwest;whiteSpace=wrap;html=1;" vertex="1" parent="8JPHpoGy0JxroXhBt5FB-72">
          <mxGeometry y="78" width="140" height="26" as="geometry" />
        </mxCell>
        <mxCell id="8JPHpoGy0JxroXhBt5FB-82" style="edgeStyle=orthogonalEdgeStyle;rounded=0;orthogonalLoop=1;jettySize=auto;html=1;exitX=0;exitY=0.5;exitDx=0;exitDy=0;entryX=0;entryY=0.5;entryDx=0;entryDy=0;" edge="1" parent="1" source="8JPHpoGy0JxroXhBt5FB-50" target="8JPHpoGy0JxroXhBt5FB-13">
          <mxGeometry relative="1" as="geometry">
            <Array as="points">
              <mxPoint x="20" y="-615" />
              <mxPoint x="20" y="-930" />
              <mxPoint x="250" y="-930" />
              <mxPoint x="250" y="-1081" />
            </Array>
          </mxGeometry>
        </mxCell>
        <mxCell id="8JPHpoGy0JxroXhBt5FB-83" style="edgeStyle=orthogonalEdgeStyle;rounded=0;orthogonalLoop=1;jettySize=auto;html=1;exitX=0;exitY=0.5;exitDx=0;exitDy=0;" edge="1" parent="1" source="8JPHpoGy0JxroXhBt5FB-65" target="8JPHpoGy0JxroXhBt5FB-41">
          <mxGeometry relative="1" as="geometry">
            <Array as="points">
              <mxPoint x="630" y="-695" />
              <mxPoint x="630" y="-641" />
            </Array>
          </mxGeometry>
        </mxCell>
        <mxCell id="8JPHpoGy0JxroXhBt5FB-89" style="edgeStyle=orthogonalEdgeStyle;rounded=0;orthogonalLoop=1;jettySize=auto;html=1;exitX=0;exitY=0.5;exitDx=0;exitDy=0;entryX=1;entryY=0.5;entryDx=0;entryDy=0;" edge="1" parent="1" source="8JPHpoGy0JxroXhBt5FB-68" target="8JPHpoGy0JxroXhBt5FB-41">
          <mxGeometry relative="1" as="geometry">
            <Array as="points">
              <mxPoint x="630" y="-571" />
              <mxPoint x="630" y="-641" />
            </Array>
          </mxGeometry>
        </mxCell>
        <mxCell id="8JPHpoGy0JxroXhBt5FB-90" style="edgeStyle=orthogonalEdgeStyle;rounded=0;orthogonalLoop=1;jettySize=auto;html=1;exitX=0;exitY=0.5;exitDx=0;exitDy=0;entryX=1;entryY=0.5;entryDx=0;entryDy=0;" edge="1" parent="1" source="8JPHpoGy0JxroXhBt5FB-71" target="8JPHpoGy0JxroXhBt5FB-41">
          <mxGeometry relative="1" as="geometry">
            <Array as="points">
              <mxPoint x="630" y="-446" />
              <mxPoint x="630" y="-641" />
            </Array>
          </mxGeometry>
        </mxCell>
        <mxCell id="8JPHpoGy0JxroXhBt5FB-91" style="edgeStyle=orthogonalEdgeStyle;rounded=0;orthogonalLoop=1;jettySize=auto;html=1;exitX=0;exitY=0.5;exitDx=0;exitDy=0;" edge="1" parent="1" source="8JPHpoGy0JxroXhBt5FB-74" target="8JPHpoGy0JxroXhBt5FB-41">
          <mxGeometry relative="1" as="geometry">
            <Array as="points">
              <mxPoint x="630" y="-325" />
              <mxPoint x="630" y="-641" />
            </Array>
          </mxGeometry>
        </mxCell>
        <mxCell id="8JPHpoGy0JxroXhBt5FB-93" value="ADDRESS" style="swimlane;fontStyle=0;childLayout=stackLayout;horizontal=1;startSize=26;fillColor=none;horizontalStack=0;resizeParent=1;resizeParentMax=0;resizeLast=0;collapsible=1;marginBottom=0;whiteSpace=wrap;html=1;" vertex="1" parent="1">
          <mxGeometry x="40" y="-310" width="170" height="208" as="geometry" />
        </mxCell>
        <mxCell id="8JPHpoGy0JxroXhBt5FB-94" value="+ ID: INT" style="text;strokeColor=none;fillColor=none;align=left;verticalAlign=top;spacingLeft=4;spacingRight=4;overflow=hidden;rotatable=0;points=[[0,0.5],[1,0.5]];portConstraint=eastwest;whiteSpace=wrap;html=1;" vertex="1" parent="8JPHpoGy0JxroXhBt5FB-93">
          <mxGeometry y="26" width="170" height="26" as="geometry" />
        </mxCell>
        <mxCell id="8JPHpoGy0JxroXhBt5FB-95" value="&amp;nbsp;CUSTOMER: FK" style="text;strokeColor=none;fillColor=none;align=left;verticalAlign=top;spacingLeft=4;spacingRight=4;overflow=hidden;rotatable=0;points=[[0,0.5],[1,0.5]];portConstraint=eastwest;whiteSpace=wrap;html=1;" vertex="1" parent="8JPHpoGy0JxroXhBt5FB-93">
          <mxGeometry y="52" width="170" height="26" as="geometry" />
        </mxCell>
        <mxCell id="8JPHpoGy0JxroXhBt5FB-96" value="&amp;nbsp;ADDRESS_NAME: CHAR" style="text;strokeColor=none;fillColor=none;align=left;verticalAlign=top;spacingLeft=4;spacingRight=4;overflow=hidden;rotatable=0;points=[[0,0.5],[1,0.5]];portConstraint=eastwest;whiteSpace=wrap;html=1;" vertex="1" parent="8JPHpoGy0JxroXhBt5FB-93">
          <mxGeometry y="78" width="170" height="26" as="geometry" />
        </mxCell>
        <mxCell id="8JPHpoGy0JxroXhBt5FB-97" value="&amp;nbsp;TYPE: LIST" style="text;strokeColor=none;fillColor=none;align=left;verticalAlign=top;spacingLeft=4;spacingRight=4;overflow=hidden;rotatable=0;points=[[0,0.5],[1,0.5]];portConstraint=eastwest;whiteSpace=wrap;html=1;" vertex="1" parent="8JPHpoGy0JxroXhBt5FB-93">
          <mxGeometry y="104" width="170" height="26" as="geometry" />
        </mxCell>
        <mxCell id="8JPHpoGy0JxroXhBt5FB-98" value="&amp;nbsp;EMIRATE: FK" style="text;strokeColor=none;fillColor=none;align=left;verticalAlign=top;spacingLeft=4;spacingRight=4;overflow=hidden;rotatable=0;points=[[0,0.5],[1,0.5]];portConstraint=eastwest;whiteSpace=wrap;html=1;" vertex="1" parent="8JPHpoGy0JxroXhBt5FB-93">
          <mxGeometry y="130" width="170" height="26" as="geometry" />
        </mxCell>
        <mxCell id="8JPHpoGy0JxroXhBt5FB-99" value="&amp;nbsp;DESCRIPTION: TEXT" style="text;strokeColor=none;fillColor=none;align=left;verticalAlign=top;spacingLeft=4;spacingRight=4;overflow=hidden;rotatable=0;points=[[0,0.5],[1,0.5]];portConstraint=eastwest;whiteSpace=wrap;html=1;" vertex="1" parent="8JPHpoGy0JxroXhBt5FB-93">
          <mxGeometry y="156" width="170" height="26" as="geometry" />
        </mxCell>
        <mxCell id="8JPHpoGy0JxroXhBt5FB-100" value="&amp;nbsp;LOCATION: CHAR" style="text;strokeColor=none;fillColor=none;align=left;verticalAlign=top;spacingLeft=4;spacingRight=4;overflow=hidden;rotatable=0;points=[[0,0.5],[1,0.5]];portConstraint=eastwest;whiteSpace=wrap;html=1;" vertex="1" parent="8JPHpoGy0JxroXhBt5FB-93">
          <mxGeometry y="182" width="170" height="26" as="geometry" />
        </mxCell>
        <mxCell id="8JPHpoGy0JxroXhBt5FB-106" style="edgeStyle=orthogonalEdgeStyle;rounded=0;orthogonalLoop=1;jettySize=auto;html=1;entryX=1;entryY=0.5;entryDx=0;entryDy=0;" edge="1" parent="1" source="8JPHpoGy0JxroXhBt5FB-102" target="8JPHpoGy0JxroXhBt5FB-97">
          <mxGeometry relative="1" as="geometry">
            <Array as="points">
              <mxPoint x="140" y="-80" />
              <mxPoint x="230" y="-80" />
              <mxPoint x="230" y="-193" />
            </Array>
          </mxGeometry>
        </mxCell>
        <mxCell id="8JPHpoGy0JxroXhBt5FB-102" value="List" style="swimlane;fontStyle=0;childLayout=stackLayout;horizontal=1;startSize=26;fillColor=none;horizontalStack=0;resizeParent=1;resizeParentMax=0;resizeLast=0;collapsible=1;marginBottom=0;html=1;" vertex="1" parent="1">
          <mxGeometry x="70" y="-78" width="140" height="78" as="geometry" />
        </mxCell>
        <mxCell id="8JPHpoGy0JxroXhBt5FB-103" value="HOUSE" style="text;strokeColor=none;fillColor=none;align=left;verticalAlign=top;spacingLeft=4;spacingRight=4;overflow=hidden;rotatable=0;points=[[0,0.5],[1,0.5]];portConstraint=eastwest;whiteSpace=wrap;html=1;" vertex="1" parent="8JPHpoGy0JxroXhBt5FB-102">
          <mxGeometry y="26" width="140" height="26" as="geometry" />
        </mxCell>
        <mxCell id="8JPHpoGy0JxroXhBt5FB-104" value="COMPANY" style="text;strokeColor=none;fillColor=none;align=left;verticalAlign=top;spacingLeft=4;spacingRight=4;overflow=hidden;rotatable=0;points=[[0,0.5],[1,0.5]];portConstraint=eastwest;whiteSpace=wrap;html=1;" vertex="1" parent="8JPHpoGy0JxroXhBt5FB-102">
          <mxGeometry y="52" width="140" height="26" as="geometry" />
        </mxCell>
        <mxCell id="8JPHpoGy0JxroXhBt5FB-107" value="EMIRATE" style="swimlane;fontStyle=0;childLayout=stackLayout;horizontal=1;startSize=26;fillColor=none;horizontalStack=0;resizeParent=1;resizeParentMax=0;resizeLast=0;collapsible=1;marginBottom=0;whiteSpace=wrap;html=1;" vertex="1" parent="1">
          <mxGeometry x="360" y="-206" width="140" height="78" as="geometry" />
        </mxCell>
        <mxCell id="8JPHpoGy0JxroXhBt5FB-108" value="+ ID: INT" style="text;strokeColor=none;fillColor=none;align=left;verticalAlign=top;spacingLeft=4;spacingRight=4;overflow=hidden;rotatable=0;points=[[0,0.5],[1,0.5]];portConstraint=eastwest;whiteSpace=wrap;html=1;" vertex="1" parent="8JPHpoGy0JxroXhBt5FB-107">
          <mxGeometry y="26" width="140" height="26" as="geometry" />
        </mxCell>
        <mxCell id="8JPHpoGy0JxroXhBt5FB-109" value="&amp;nbsp; NAME: CHAR" style="text;strokeColor=none;fillColor=none;align=left;verticalAlign=top;spacingLeft=4;spacingRight=4;overflow=hidden;rotatable=0;points=[[0,0.5],[1,0.5]];portConstraint=eastwest;whiteSpace=wrap;html=1;" vertex="1" parent="8JPHpoGy0JxroXhBt5FB-107">
          <mxGeometry y="52" width="140" height="26" as="geometry" />
        </mxCell>
        <mxCell id="8JPHpoGy0JxroXhBt5FB-110" style="edgeStyle=orthogonalEdgeStyle;rounded=0;orthogonalLoop=1;jettySize=auto;html=1;exitX=1;exitY=0.5;exitDx=0;exitDy=0;entryX=0;entryY=0.5;entryDx=0;entryDy=0;" edge="1" parent="1" source="8JPHpoGy0JxroXhBt5FB-98" target="8JPHpoGy0JxroXhBt5FB-107">
          <mxGeometry relative="1" as="geometry" />
        </mxCell>
        <mxCell id="8JPHpoGy0JxroXhBt5FB-111" style="edgeStyle=orthogonalEdgeStyle;rounded=0;orthogonalLoop=1;jettySize=auto;html=1;exitX=0;exitY=0.5;exitDx=0;exitDy=0;entryX=0;entryY=0.5;entryDx=0;entryDy=0;" edge="1" parent="1" source="8JPHpoGy0JxroXhBt5FB-95" target="8JPHpoGy0JxroXhBt5FB-41">
          <mxGeometry relative="1" as="geometry">
            <Array as="points">
              <mxPoint x="10" y="-245" />
              <mxPoint x="10" y="-641" />
            </Array>
          </mxGeometry>
        </mxCell>
        <mxCell id="8JPHpoGy0JxroXhBt5FB-112" value="INQUIRY" style="swimlane;fontStyle=0;childLayout=stackLayout;horizontal=1;startSize=26;fillColor=none;horizontalStack=0;resizeParent=1;resizeParentMax=0;resizeLast=0;collapsible=1;marginBottom=0;whiteSpace=wrap;html=1;" vertex="1" parent="1">
          <mxGeometry x="40" y="40" width="170" height="208" as="geometry" />
        </mxCell>
        <mxCell id="8JPHpoGy0JxroXhBt5FB-113" value="+ ID: INT" style="text;strokeColor=none;fillColor=none;align=left;verticalAlign=top;spacingLeft=4;spacingRight=4;overflow=hidden;rotatable=0;points=[[0,0.5],[1,0.5]];portConstraint=eastwest;whiteSpace=wrap;html=1;" vertex="1" parent="8JPHpoGy0JxroXhBt5FB-112">
          <mxGeometry y="26" width="170" height="26" as="geometry" />
        </mxCell>
        <mxCell id="8JPHpoGy0JxroXhBt5FB-114" value="&amp;nbsp;CUSTOMER: FK" style="text;strokeColor=none;fillColor=none;align=left;verticalAlign=top;spacingLeft=4;spacingRight=4;overflow=hidden;rotatable=0;points=[[0,0.5],[1,0.5]];portConstraint=eastwest;whiteSpace=wrap;html=1;" vertex="1" parent="8JPHpoGy0JxroXhBt5FB-112">
          <mxGeometry y="52" width="170" height="26" as="geometry" />
        </mxCell>
        <mxCell id="8JPHpoGy0JxroXhBt5FB-115" value="&amp;nbsp;ADDRESS: FK" style="text;strokeColor=none;fillColor=none;align=left;verticalAlign=top;spacingLeft=4;spacingRight=4;overflow=hidden;rotatable=0;points=[[0,0.5],[1,0.5]];portConstraint=eastwest;whiteSpace=wrap;html=1;" vertex="1" parent="8JPHpoGy0JxroXhBt5FB-112">
          <mxGeometry y="78" width="170" height="26" as="geometry" />
        </mxCell>
        <mxCell id="8JPHpoGy0JxroXhBt5FB-116" value="&amp;nbsp;DATE_INQ: DATE" style="text;strokeColor=none;fillColor=none;align=left;verticalAlign=top;spacingLeft=4;spacingRight=4;overflow=hidden;rotatable=0;points=[[0,0.5],[1,0.5]];portConstraint=eastwest;whiteSpace=wrap;html=1;" vertex="1" parent="8JPHpoGy0JxroXhBt5FB-112">
          <mxGeometry y="104" width="170" height="26" as="geometry" />
        </mxCell>
        <mxCell id="8JPHpoGy0JxroXhBt5FB-117" value="&amp;nbsp;SERVICE: FK" style="text;strokeColor=none;fillColor=none;align=left;verticalAlign=top;spacingLeft=4;spacingRight=4;overflow=hidden;rotatable=0;points=[[0,0.5],[1,0.5]];portConstraint=eastwest;whiteSpace=wrap;html=1;" vertex="1" parent="8JPHpoGy0JxroXhBt5FB-112">
          <mxGeometry y="130" width="170" height="26" as="geometry" />
        </mxCell>
        <mxCell id="8JPHpoGy0JxroXhBt5FB-118" value="&amp;nbsp;SOURCE: FK" style="text;strokeColor=none;fillColor=none;align=left;verticalAlign=top;spacingLeft=4;spacingRight=4;overflow=hidden;rotatable=0;points=[[0,0.5],[1,0.5]];portConstraint=eastwest;whiteSpace=wrap;html=1;" vertex="1" parent="8JPHpoGy0JxroXhBt5FB-112">
          <mxGeometry y="156" width="170" height="26" as="geometry" />
        </mxCell>
        <mxCell id="8JPHpoGy0JxroXhBt5FB-119" value="&amp;nbsp;DESCRIPTION: TEXT" style="text;strokeColor=none;fillColor=none;align=left;verticalAlign=top;spacingLeft=4;spacingRight=4;overflow=hidden;rotatable=0;points=[[0,0.5],[1,0.5]];portConstraint=eastwest;whiteSpace=wrap;html=1;" vertex="1" parent="8JPHpoGy0JxroXhBt5FB-112">
          <mxGeometry y="182" width="170" height="26" as="geometry" />
        </mxCell>
        <mxCell id="8JPHpoGy0JxroXhBt5FB-120" style="edgeStyle=orthogonalEdgeStyle;rounded=0;orthogonalLoop=1;jettySize=auto;html=1;exitX=1;exitY=0.5;exitDx=0;exitDy=0;entryX=1;entryY=0.5;entryDx=0;entryDy=0;" edge="1" parent="1" source="8JPHpoGy0JxroXhBt5FB-115" target="8JPHpoGy0JxroXhBt5FB-94">
          <mxGeometry relative="1" as="geometry">
            <Array as="points">
              <mxPoint x="250" y="131" />
              <mxPoint x="250" y="-271" />
            </Array>
          </mxGeometry>
        </mxCell>
        <mxCell id="8JPHpoGy0JxroXhBt5FB-125" style="edgeStyle=orthogonalEdgeStyle;rounded=0;orthogonalLoop=1;jettySize=auto;html=1;exitX=0;exitY=0.5;exitDx=0;exitDy=0;entryX=0;entryY=0.5;entryDx=0;entryDy=0;" edge="1" parent="1" source="8JPHpoGy0JxroXhBt5FB-114" target="8JPHpoGy0JxroXhBt5FB-41">
          <mxGeometry relative="1" as="geometry">
            <mxPoint x="20" y="-590" as="targetPoint" />
            <Array as="points">
              <mxPoint x="10" y="105" />
              <mxPoint x="10" y="-641" />
            </Array>
          </mxGeometry>
        </mxCell>
        <mxCell id="8JPHpoGy0JxroXhBt5FB-126" style="edgeStyle=orthogonalEdgeStyle;rounded=0;orthogonalLoop=1;jettySize=auto;html=1;exitX=1;exitY=0.5;exitDx=0;exitDy=0;entryX=1;entryY=0.5;entryDx=0;entryDy=0;" edge="1" parent="1" source="8JPHpoGy0JxroXhBt5FB-117" target="8JPHpoGy0JxroXhBt5FB-31">
          <mxGeometry relative="1" as="geometry">
            <mxPoint x="380" y="168" as="sourcePoint" />
            <mxPoint x="810" y="-1030" as="targetPoint" />
            <Array as="points">
              <mxPoint x="240" y="183" />
              <mxPoint x="240" y="160" />
              <mxPoint x="810" y="160" />
              <mxPoint x="810" y="-1015" />
            </Array>
          </mxGeometry>
        </mxCell>
        <mxCell id="8JPHpoGy0JxroXhBt5FB-127" value="SOURCE" style="swimlane;fontStyle=0;childLayout=stackLayout;horizontal=1;startSize=26;fillColor=none;horizontalStack=0;resizeParent=1;resizeParentMax=0;resizeLast=0;collapsible=1;marginBottom=0;whiteSpace=wrap;html=1;" vertex="1" parent="1">
          <mxGeometry x="370" y="170" width="140" height="78" as="geometry" />
        </mxCell>
        <mxCell id="8JPHpoGy0JxroXhBt5FB-128" value="+ ID: INT" style="text;strokeColor=none;fillColor=none;align=left;verticalAlign=top;spacingLeft=4;spacingRight=4;overflow=hidden;rotatable=0;points=[[0,0.5],[1,0.5]];portConstraint=eastwest;whiteSpace=wrap;html=1;" vertex="1" parent="8JPHpoGy0JxroXhBt5FB-127">
          <mxGeometry y="26" width="140" height="26" as="geometry" />
        </mxCell>
        <mxCell id="8JPHpoGy0JxroXhBt5FB-129" value="&amp;nbsp; NAME: CHAR" style="text;strokeColor=none;fillColor=none;align=left;verticalAlign=top;spacingLeft=4;spacingRight=4;overflow=hidden;rotatable=0;points=[[0,0.5],[1,0.5]];portConstraint=eastwest;whiteSpace=wrap;html=1;" vertex="1" parent="8JPHpoGy0JxroXhBt5FB-127">
          <mxGeometry y="52" width="140" height="26" as="geometry" />
        </mxCell>
        <mxCell id="8JPHpoGy0JxroXhBt5FB-130" style="edgeStyle=orthogonalEdgeStyle;rounded=0;orthogonalLoop=1;jettySize=auto;html=1;exitX=1;exitY=0.5;exitDx=0;exitDy=0;entryX=0;entryY=0.5;entryDx=0;entryDy=0;" edge="1" parent="1" source="8JPHpoGy0JxroXhBt5FB-118" target="8JPHpoGy0JxroXhBt5FB-127">
          <mxGeometry relative="1" as="geometry" />
        </mxCell>
        <mxCell id="8JPHpoGy0JxroXhBt5FB-131" value="INQUIRYSTATUS" style="swimlane;fontStyle=0;childLayout=stackLayout;horizontal=1;startSize=26;fillColor=none;horizontalStack=0;resizeParent=1;resizeParentMax=0;resizeLast=0;collapsible=1;marginBottom=0;whiteSpace=wrap;html=1;" vertex="1" parent="1">
          <mxGeometry x="360" y="284" width="140" height="104" as="geometry" />
        </mxCell>
        <mxCell id="8JPHpoGy0JxroXhBt5FB-132" value="+ ID: INT" style="text;strokeColor=none;fillColor=none;align=left;verticalAlign=top;spacingLeft=4;spacingRight=4;overflow=hidden;rotatable=0;points=[[0,0.5],[1,0.5]];portConstraint=eastwest;whiteSpace=wrap;html=1;" vertex="1" parent="8JPHpoGy0JxroXhBt5FB-131">
          <mxGeometry y="26" width="140" height="26" as="geometry" />
        </mxCell>
        <mxCell id="8JPHpoGy0JxroXhBt5FB-133" value="&amp;nbsp; INQUIRY: FK" style="text;strokeColor=none;fillColor=none;align=left;verticalAlign=top;spacingLeft=4;spacingRight=4;overflow=hidden;rotatable=0;points=[[0,0.5],[1,0.5]];portConstraint=eastwest;whiteSpace=wrap;html=1;" vertex="1" parent="8JPHpoGy0JxroXhBt5FB-131">
          <mxGeometry y="52" width="140" height="26" as="geometry" />
        </mxCell>
        <mxCell id="8JPHpoGy0JxroXhBt5FB-134" value="&amp;nbsp; STATUS: FK" style="text;strokeColor=none;fillColor=none;align=left;verticalAlign=top;spacingLeft=4;spacingRight=4;overflow=hidden;rotatable=0;points=[[0,0.5],[1,0.5]];portConstraint=eastwest;whiteSpace=wrap;html=1;" vertex="1" parent="8JPHpoGy0JxroXhBt5FB-131">
          <mxGeometry y="78" width="140" height="26" as="geometry" />
        </mxCell>
        <mxCell id="8JPHpoGy0JxroXhBt5FB-135" style="edgeStyle=orthogonalEdgeStyle;rounded=0;orthogonalLoop=1;jettySize=auto;html=1;exitX=0;exitY=0.5;exitDx=0;exitDy=0;entryX=1;entryY=0.5;entryDx=0;entryDy=0;" edge="1" parent="1" source="8JPHpoGy0JxroXhBt5FB-133" target="8JPHpoGy0JxroXhBt5FB-113">
          <mxGeometry relative="1" as="geometry">
            <Array as="points">
              <mxPoint x="310" y="349" />
              <mxPoint x="310" y="79" />
            </Array>
          </mxGeometry>
        </mxCell>
        <mxCell id="8JPHpoGy0JxroXhBt5FB-136" value="STATUS" style="swimlane;fontStyle=0;childLayout=stackLayout;horizontal=1;startSize=26;fillColor=none;horizontalStack=0;resizeParent=1;resizeParentMax=0;resizeLast=0;collapsible=1;marginBottom=0;whiteSpace=wrap;html=1;" vertex="1" parent="1">
          <mxGeometry x="610" y="336" width="140" height="78" as="geometry" />
        </mxCell>
        <mxCell id="8JPHpoGy0JxroXhBt5FB-137" value="+ ID: INT" style="text;strokeColor=none;fillColor=none;align=left;verticalAlign=top;spacingLeft=4;spacingRight=4;overflow=hidden;rotatable=0;points=[[0,0.5],[1,0.5]];portConstraint=eastwest;whiteSpace=wrap;html=1;" vertex="1" parent="8JPHpoGy0JxroXhBt5FB-136">
          <mxGeometry y="26" width="140" height="26" as="geometry" />
        </mxCell>
        <mxCell id="8JPHpoGy0JxroXhBt5FB-138" value="&amp;nbsp; NAME: CHAR" style="text;strokeColor=none;fillColor=none;align=left;verticalAlign=top;spacingLeft=4;spacingRight=4;overflow=hidden;rotatable=0;points=[[0,0.5],[1,0.5]];portConstraint=eastwest;whiteSpace=wrap;html=1;" vertex="1" parent="8JPHpoGy0JxroXhBt5FB-136">
          <mxGeometry y="52" width="140" height="26" as="geometry" />
        </mxCell>
        <mxCell id="8JPHpoGy0JxroXhBt5FB-139" style="edgeStyle=orthogonalEdgeStyle;rounded=0;orthogonalLoop=1;jettySize=auto;html=1;exitX=1;exitY=0.5;exitDx=0;exitDy=0;entryX=0;entryY=0.5;entryDx=0;entryDy=0;" edge="1" parent="1" source="8JPHpoGy0JxroXhBt5FB-134" target="8JPHpoGy0JxroXhBt5FB-136">
          <mxGeometry relative="1" as="geometry" />
        </mxCell>
        <mxCell id="8JPHpoGy0JxroXhBt5FB-141" value="QUOTATION" style="swimlane;fontStyle=0;childLayout=stackLayout;horizontal=1;startSize=26;fillColor=none;horizontalStack=0;resizeParent=1;resizeParentMax=0;resizeLast=0;collapsible=1;marginBottom=0;whiteSpace=wrap;html=1;" vertex="1" parent="1">
          <mxGeometry x="40" y="360" width="170" height="234" as="geometry" />
        </mxCell>
        <mxCell id="8JPHpoGy0JxroXhBt5FB-142" value="+ ID: INT" style="text;strokeColor=none;fillColor=none;align=left;verticalAlign=top;spacingLeft=4;spacingRight=4;overflow=hidden;rotatable=0;points=[[0,0.5],[1,0.5]];portConstraint=eastwest;whiteSpace=wrap;html=1;" vertex="1" parent="8JPHpoGy0JxroXhBt5FB-141">
          <mxGeometry y="26" width="170" height="26" as="geometry" />
        </mxCell>
        <mxCell id="8JPHpoGy0JxroXhBt5FB-150" value="&amp;nbsp;EMPLOYEE: FK" style="text;strokeColor=none;fillColor=none;align=left;verticalAlign=top;spacingLeft=4;spacingRight=4;overflow=hidden;rotatable=0;points=[[0,0.5],[1,0.5]];portConstraint=eastwest;whiteSpace=wrap;html=1;" vertex="1" parent="8JPHpoGy0JxroXhBt5FB-141">
          <mxGeometry y="52" width="170" height="26" as="geometry" />
        </mxCell>
        <mxCell id="8JPHpoGy0JxroXhBt5FB-143" value="&amp;nbsp;CUSTOMER: FK" style="text;strokeColor=none;fillColor=none;align=left;verticalAlign=top;spacingLeft=4;spacingRight=4;overflow=hidden;rotatable=0;points=[[0,0.5],[1,0.5]];portConstraint=eastwest;whiteSpace=wrap;html=1;" vertex="1" parent="8JPHpoGy0JxroXhBt5FB-141">
          <mxGeometry y="78" width="170" height="26" as="geometry" />
        </mxCell>
        <mxCell id="8JPHpoGy0JxroXhBt5FB-144" value="&amp;nbsp;INQUIRY: FK" style="text;strokeColor=none;fillColor=none;align=left;verticalAlign=top;spacingLeft=4;spacingRight=4;overflow=hidden;rotatable=0;points=[[0,0.5],[1,0.5]];portConstraint=eastwest;whiteSpace=wrap;html=1;" vertex="1" parent="8JPHpoGy0JxroXhBt5FB-141">
          <mxGeometry y="104" width="170" height="26" as="geometry" />
        </mxCell>
        <mxCell id="8JPHpoGy0JxroXhBt5FB-145" value="&amp;nbsp;QUOTATION_DATE: DATE" style="text;strokeColor=none;fillColor=none;align=left;verticalAlign=top;spacingLeft=4;spacingRight=4;overflow=hidden;rotatable=0;points=[[0,0.5],[1,0.5]];portConstraint=eastwest;whiteSpace=wrap;html=1;" vertex="1" parent="8JPHpoGy0JxroXhBt5FB-141">
          <mxGeometry y="130" width="170" height="26" as="geometry" />
        </mxCell>
        <mxCell id="8JPHpoGy0JxroXhBt5FB-146" value="&amp;nbsp;QUOTATION_SERVICE: FK" style="text;strokeColor=none;fillColor=none;align=left;verticalAlign=top;spacingLeft=4;spacingRight=4;overflow=hidden;rotatable=0;points=[[0,0.5],[1,0.5]];portConstraint=eastwest;whiteSpace=wrap;html=1;" vertex="1" parent="8JPHpoGy0JxroXhBt5FB-141">
          <mxGeometry y="156" width="170" height="26" as="geometry" />
        </mxCell>
        <mxCell id="8JPHpoGy0JxroXhBt5FB-147" value="&amp;nbsp;DATA: TEXT" style="text;strokeColor=none;fillColor=none;align=left;verticalAlign=top;spacingLeft=4;spacingRight=4;overflow=hidden;rotatable=0;points=[[0,0.5],[1,0.5]];portConstraint=eastwest;whiteSpace=wrap;html=1;" vertex="1" parent="8JPHpoGy0JxroXhBt5FB-141">
          <mxGeometry y="182" width="170" height="26" as="geometry" />
        </mxCell>
        <mxCell id="8JPHpoGy0JxroXhBt5FB-148" value="&amp;nbsp;TOTALE: CHAR" style="text;strokeColor=none;fillColor=none;align=left;verticalAlign=top;spacingLeft=4;spacingRight=4;overflow=hidden;rotatable=0;points=[[0,0.5],[1,0.5]];portConstraint=eastwest;whiteSpace=wrap;html=1;" vertex="1" parent="8JPHpoGy0JxroXhBt5FB-141">
          <mxGeometry y="208" width="170" height="26" as="geometry" />
        </mxCell>
        <mxCell id="8JPHpoGy0JxroXhBt5FB-151" style="edgeStyle=orthogonalEdgeStyle;rounded=0;orthogonalLoop=1;jettySize=auto;html=1;exitX=0;exitY=0.5;exitDx=0;exitDy=0;entryX=0;entryY=0.5;entryDx=0;entryDy=0;" edge="1" parent="1" source="8JPHpoGy0JxroXhBt5FB-150" target="8JPHpoGy0JxroXhBt5FB-13">
          <mxGeometry relative="1" as="geometry">
            <Array as="points">
              <mxPoint x="20" y="425" />
              <mxPoint x="20" y="-930" />
              <mxPoint x="250" y="-930" />
              <mxPoint x="250" y="-1081" />
            </Array>
          </mxGeometry>
        </mxCell>
        <mxCell id="8JPHpoGy0JxroXhBt5FB-152" style="edgeStyle=orthogonalEdgeStyle;rounded=0;orthogonalLoop=1;jettySize=auto;html=1;exitX=0;exitY=0.5;exitDx=0;exitDy=0;entryX=0;entryY=0.5;entryDx=0;entryDy=0;" edge="1" parent="1" source="8JPHpoGy0JxroXhBt5FB-143" target="8JPHpoGy0JxroXhBt5FB-41">
          <mxGeometry relative="1" as="geometry">
            <Array as="points">
              <mxPoint y="451" />
              <mxPoint y="-641" />
            </Array>
          </mxGeometry>
        </mxCell>
        <mxCell id="8JPHpoGy0JxroXhBt5FB-153" style="edgeStyle=orthogonalEdgeStyle;rounded=0;orthogonalLoop=1;jettySize=auto;html=1;exitX=1;exitY=0.5;exitDx=0;exitDy=0;entryX=1;entryY=0.5;entryDx=0;entryDy=0;" edge="1" parent="1" source="8JPHpoGy0JxroXhBt5FB-144" target="8JPHpoGy0JxroXhBt5FB-113">
          <mxGeometry relative="1" as="geometry">
            <Array as="points">
              <mxPoint x="300" y="477" />
              <mxPoint x="300" y="79" />
            </Array>
          </mxGeometry>
        </mxCell>
        <mxCell id="8JPHpoGy0JxroXhBt5FB-154" style="edgeStyle=orthogonalEdgeStyle;rounded=0;orthogonalLoop=1;jettySize=auto;html=1;exitX=1;exitY=0.5;exitDx=0;exitDy=0;entryX=1;entryY=0.5;entryDx=0;entryDy=0;" edge="1" parent="1" source="8JPHpoGy0JxroXhBt5FB-146" target="8JPHpoGy0JxroXhBt5FB-31">
          <mxGeometry relative="1" as="geometry">
            <mxPoint x="769.0909090909091" y="-1060" as="targetPoint" />
            <Array as="points">
              <mxPoint x="810" y="529" />
              <mxPoint x="810" y="-1015" />
            </Array>
          </mxGeometry>
        </mxCell>
        <mxCell id="8JPHpoGy0JxroXhBt5FB-155" value="INQUIRYNOTIFY" style="swimlane;fontStyle=0;childLayout=stackLayout;horizontal=1;startSize=26;fillColor=none;horizontalStack=0;resizeParent=1;resizeParentMax=0;resizeLast=0;collapsible=1;marginBottom=0;whiteSpace=wrap;html=1;" vertex="1" parent="1">
          <mxGeometry x="390" y="-20" width="140" height="156" as="geometry" />
        </mxCell>
        <mxCell id="8JPHpoGy0JxroXhBt5FB-156" value="+ ID: INT" style="text;strokeColor=none;fillColor=none;align=left;verticalAlign=top;spacingLeft=4;spacingRight=4;overflow=hidden;rotatable=0;points=[[0,0.5],[1,0.5]];portConstraint=eastwest;whiteSpace=wrap;html=1;" vertex="1" parent="8JPHpoGy0JxroXhBt5FB-155">
          <mxGeometry y="26" width="140" height="26" as="geometry" />
        </mxCell>
        <mxCell id="8JPHpoGy0JxroXhBt5FB-158" value="&amp;nbsp; EMPLOYEE: FK" style="text;strokeColor=none;fillColor=none;align=left;verticalAlign=top;spacingLeft=4;spacingRight=4;overflow=hidden;rotatable=0;points=[[0,0.5],[1,0.5]];portConstraint=eastwest;whiteSpace=wrap;html=1;" vertex="1" parent="8JPHpoGy0JxroXhBt5FB-155">
          <mxGeometry y="52" width="140" height="26" as="geometry" />
        </mxCell>
        <mxCell id="8JPHpoGy0JxroXhBt5FB-157" value="&amp;nbsp; INQUIRY: FK" style="text;strokeColor=none;fillColor=none;align=left;verticalAlign=top;spacingLeft=4;spacingRight=4;overflow=hidden;rotatable=0;points=[[0,0.5],[1,0.5]];portConstraint=eastwest;whiteSpace=wrap;html=1;" vertex="1" parent="8JPHpoGy0JxroXhBt5FB-155">
          <mxGeometry y="78" width="140" height="26" as="geometry" />
        </mxCell>
        <mxCell id="8JPHpoGy0JxroXhBt5FB-159" value="&amp;nbsp; SERVICE: FK" style="text;strokeColor=none;fillColor=none;align=left;verticalAlign=top;spacingLeft=4;spacingRight=4;overflow=hidden;rotatable=0;points=[[0,0.5],[1,0.5]];portConstraint=eastwest;whiteSpace=wrap;html=1;" vertex="1" parent="8JPHpoGy0JxroXhBt5FB-155">
          <mxGeometry y="104" width="140" height="26" as="geometry" />
        </mxCell>
        <mxCell id="8JPHpoGy0JxroXhBt5FB-160" value="&amp;nbsp; ACTION: LIST" style="text;strokeColor=none;fillColor=none;align=left;verticalAlign=top;spacingLeft=4;spacingRight=4;overflow=hidden;rotatable=0;points=[[0,0.5],[1,0.5]];portConstraint=eastwest;whiteSpace=wrap;html=1;" vertex="1" parent="8JPHpoGy0JxroXhBt5FB-155">
          <mxGeometry y="130" width="140" height="26" as="geometry" />
        </mxCell>
        <mxCell id="8JPHpoGy0JxroXhBt5FB-161" value="List" style="swimlane;fontStyle=0;childLayout=stackLayout;horizontal=1;startSize=26;fillColor=none;horizontalStack=0;resizeParent=1;resizeParentMax=0;resizeLast=0;collapsible=1;marginBottom=0;html=1;" vertex="1" parent="1">
          <mxGeometry x="640" y="-128" width="140" height="156" as="geometry" />
        </mxCell>
        <mxCell id="8JPHpoGy0JxroXhBt5FB-162" value="NEW" style="text;strokeColor=none;fillColor=none;align=left;verticalAlign=top;spacingLeft=4;spacingRight=4;overflow=hidden;rotatable=0;points=[[0,0.5],[1,0.5]];portConstraint=eastwest;whiteSpace=wrap;html=1;" vertex="1" parent="8JPHpoGy0JxroXhBt5FB-161">
          <mxGeometry y="26" width="140" height="26" as="geometry" />
        </mxCell>
        <mxCell id="8JPHpoGy0JxroXhBt5FB-163" value="CONNECTING" style="text;strokeColor=none;fillColor=none;align=left;verticalAlign=top;spacingLeft=4;spacingRight=4;overflow=hidden;rotatable=0;points=[[0,0.5],[1,0.5]];portConstraint=eastwest;whiteSpace=wrap;html=1;" vertex="1" parent="8JPHpoGy0JxroXhBt5FB-161">
          <mxGeometry y="52" width="140" height="26" as="geometry" />
        </mxCell>
        <mxCell id="8JPHpoGy0JxroXhBt5FB-166" value="SEND_QUOTATION" style="text;strokeColor=none;fillColor=none;align=left;verticalAlign=top;spacingLeft=4;spacingRight=4;overflow=hidden;rotatable=0;points=[[0,0.5],[1,0.5]];portConstraint=eastwest;whiteSpace=wrap;html=1;" vertex="1" parent="8JPHpoGy0JxroXhBt5FB-161">
          <mxGeometry y="78" width="140" height="26" as="geometry" />
        </mxCell>
        <mxCell id="8JPHpoGy0JxroXhBt5FB-167" value="PENDING" style="text;strokeColor=none;fillColor=none;align=left;verticalAlign=top;spacingLeft=4;spacingRight=4;overflow=hidden;rotatable=0;points=[[0,0.5],[1,0.5]];portConstraint=eastwest;whiteSpace=wrap;html=1;" vertex="1" parent="8JPHpoGy0JxroXhBt5FB-161">
          <mxGeometry y="104" width="140" height="26" as="geometry" />
        </mxCell>
        <mxCell id="8JPHpoGy0JxroXhBt5FB-168" value="UNDERPROCCESS" style="text;strokeColor=none;fillColor=none;align=left;verticalAlign=top;spacingLeft=4;spacingRight=4;overflow=hidden;rotatable=0;points=[[0,0.5],[1,0.5]];portConstraint=eastwest;whiteSpace=wrap;html=1;" vertex="1" parent="8JPHpoGy0JxroXhBt5FB-161">
          <mxGeometry y="130" width="140" height="26" as="geometry" />
        </mxCell>
        <mxCell id="8JPHpoGy0JxroXhBt5FB-164" style="edgeStyle=orthogonalEdgeStyle;rounded=0;orthogonalLoop=1;jettySize=auto;html=1;exitX=1;exitY=0.5;exitDx=0;exitDy=0;entryX=0.586;entryY=0.006;entryDx=0;entryDy=0;entryPerimeter=0;" edge="1" parent="1" source="8JPHpoGy0JxroXhBt5FB-160" target="8JPHpoGy0JxroXhBt5FB-161">
          <mxGeometry relative="1" as="geometry">
            <Array as="points">
              <mxPoint x="585" y="123" />
              <mxPoint x="585" y="-170" />
              <mxPoint x="722" y="-170" />
            </Array>
          </mxGeometry>
        </mxCell>
        <mxCell id="8JPHpoGy0JxroXhBt5FB-169" style="edgeStyle=orthogonalEdgeStyle;rounded=0;orthogonalLoop=1;jettySize=auto;html=1;exitX=1;exitY=0.5;exitDx=0;exitDy=0;entryX=1;entryY=0.5;entryDx=0;entryDy=0;" edge="1" parent="1" target="8JPHpoGy0JxroXhBt5FB-31">
          <mxGeometry relative="1" as="geometry">
            <mxPoint x="647" y="-1010" as="targetPoint" />
            <mxPoint x="537" y="96.99999999999977" as="sourcePoint" />
            <Array as="points">
              <mxPoint x="817" y="97" />
              <mxPoint x="817" y="-1015" />
            </Array>
          </mxGeometry>
        </mxCell>
        <mxCell id="8JPHpoGy0JxroXhBt5FB-170" value="BOOKING" style="swimlane;fontStyle=0;childLayout=stackLayout;horizontal=1;startSize=26;fillColor=none;horizontalStack=0;resizeParent=1;resizeParentMax=0;resizeLast=0;collapsible=1;marginBottom=0;whiteSpace=wrap;html=1;" vertex="1" parent="1">
          <mxGeometry x="-320" y="-11" width="170" height="234" as="geometry" />
        </mxCell>
        <mxCell id="8JPHpoGy0JxroXhBt5FB-171" value="+ ID: INT" style="text;strokeColor=none;fillColor=none;align=left;verticalAlign=top;spacingLeft=4;spacingRight=4;overflow=hidden;rotatable=0;points=[[0,0.5],[1,0.5]];portConstraint=eastwest;whiteSpace=wrap;html=1;" vertex="1" parent="8JPHpoGy0JxroXhBt5FB-170">
          <mxGeometry y="26" width="170" height="26" as="geometry" />
        </mxCell>
        <mxCell id="8JPHpoGy0JxroXhBt5FB-173" value="&amp;nbsp;EMPLOYEE: FK" style="text;strokeColor=none;fillColor=none;align=left;verticalAlign=top;spacingLeft=4;spacingRight=4;overflow=hidden;rotatable=0;points=[[0,0.5],[1,0.5]];portConstraint=eastwest;whiteSpace=wrap;html=1;" vertex="1" parent="8JPHpoGy0JxroXhBt5FB-170">
          <mxGeometry y="52" width="170" height="26" as="geometry" />
        </mxCell>
        <mxCell id="8JPHpoGy0JxroXhBt5FB-185" value="&amp;nbsp;CUSTOMER: FK" style="text;strokeColor=none;fillColor=none;align=left;verticalAlign=top;spacingLeft=4;spacingRight=4;overflow=hidden;rotatable=0;points=[[0,0.5],[1,0.5]];portConstraint=eastwest;whiteSpace=wrap;html=1;" vertex="1" parent="8JPHpoGy0JxroXhBt5FB-170">
          <mxGeometry y="78" width="170" height="26" as="geometry" />
        </mxCell>
        <mxCell id="8JPHpoGy0JxroXhBt5FB-174" value="&amp;nbsp;INQUIRY: FK" style="text;strokeColor=none;fillColor=none;align=left;verticalAlign=top;spacingLeft=4;spacingRight=4;overflow=hidden;rotatable=0;points=[[0,0.5],[1,0.5]];portConstraint=eastwest;whiteSpace=wrap;html=1;" vertex="1" parent="8JPHpoGy0JxroXhBt5FB-170">
          <mxGeometry y="104" width="170" height="26" as="geometry" />
        </mxCell>
        <mxCell id="8JPHpoGy0JxroXhBt5FB-175" value="&amp;nbsp;BOOKING_DATE: DATE" style="text;strokeColor=none;fillColor=none;align=left;verticalAlign=top;spacingLeft=4;spacingRight=4;overflow=hidden;rotatable=0;points=[[0,0.5],[1,0.5]];portConstraint=eastwest;whiteSpace=wrap;html=1;" vertex="1" parent="8JPHpoGy0JxroXhBt5FB-170">
          <mxGeometry y="130" width="170" height="26" as="geometry" />
        </mxCell>
        <mxCell id="8JPHpoGy0JxroXhBt5FB-176" value="&amp;nbsp;BOOKING_SERVICE: FK" style="text;strokeColor=none;fillColor=none;align=left;verticalAlign=top;spacingLeft=4;spacingRight=4;overflow=hidden;rotatable=0;points=[[0,0.5],[1,0.5]];portConstraint=eastwest;whiteSpace=wrap;html=1;" vertex="1" parent="8JPHpoGy0JxroXhBt5FB-170">
          <mxGeometry y="156" width="170" height="26" as="geometry" />
        </mxCell>
        <mxCell id="8JPHpoGy0JxroXhBt5FB-177" value="&amp;nbsp;DATA: TEXT" style="text;strokeColor=none;fillColor=none;align=left;verticalAlign=top;spacingLeft=4;spacingRight=4;overflow=hidden;rotatable=0;points=[[0,0.5],[1,0.5]];portConstraint=eastwest;whiteSpace=wrap;html=1;" vertex="1" parent="8JPHpoGy0JxroXhBt5FB-170">
          <mxGeometry y="182" width="170" height="26" as="geometry" />
        </mxCell>
        <mxCell id="8JPHpoGy0JxroXhBt5FB-178" value="&amp;nbsp;TOTALE: CHAR" style="text;strokeColor=none;fillColor=none;align=left;verticalAlign=top;spacingLeft=4;spacingRight=4;overflow=hidden;rotatable=0;points=[[0,0.5],[1,0.5]];portConstraint=eastwest;whiteSpace=wrap;html=1;" vertex="1" parent="8JPHpoGy0JxroXhBt5FB-170">
          <mxGeometry y="208" width="170" height="26" as="geometry" />
        </mxCell>
        <mxCell id="8JPHpoGy0JxroXhBt5FB-182" style="edgeStyle=orthogonalEdgeStyle;rounded=0;orthogonalLoop=1;jettySize=auto;html=1;exitX=1;exitY=0.5;exitDx=0;exitDy=0;entryX=0;entryY=0.5;entryDx=0;entryDy=0;" edge="1" parent="1" source="8JPHpoGy0JxroXhBt5FB-174" target="8JPHpoGy0JxroXhBt5FB-113">
          <mxGeometry relative="1" as="geometry" />
        </mxCell>
        <mxCell id="8JPHpoGy0JxroXhBt5FB-183" style="edgeStyle=orthogonalEdgeStyle;rounded=0;orthogonalLoop=1;jettySize=auto;html=1;exitX=1;exitY=0.5;exitDx=0;exitDy=0;entryX=0;entryY=0.5;entryDx=0;entryDy=0;" edge="1" parent="1" source="8JPHpoGy0JxroXhBt5FB-173" target="8JPHpoGy0JxroXhBt5FB-41">
          <mxGeometry relative="1" as="geometry">
            <Array as="points">
              <mxPoint x="-110" y="54" />
              <mxPoint x="-110" y="-641" />
            </Array>
          </mxGeometry>
        </mxCell>
        <mxCell id="8JPHpoGy0JxroXhBt5FB-184" style="edgeStyle=orthogonalEdgeStyle;rounded=0;orthogonalLoop=1;jettySize=auto;html=1;exitX=1;exitY=0.5;exitDx=0;exitDy=0;entryX=1;entryY=0.5;entryDx=0;entryDy=0;" edge="1" parent="1" source="8JPHpoGy0JxroXhBt5FB-176" target="8JPHpoGy0JxroXhBt5FB-31">
          <mxGeometry relative="1" as="geometry">
            <Array as="points">
              <mxPoint x="-60" y="132" />
              <mxPoint x="-60" y="-800" />
              <mxPoint x="710" y="-800" />
              <mxPoint x="710" y="-1015" />
            </Array>
          </mxGeometry>
        </mxCell>
      </root>
    </mxGraphModel>
  </diagram>
</mxfile>
